<svg height="512pt" viewBox="0 0 512 512" width="512pt" xmlns="http://www.w3.org/2000/svg" xmlns:xlink="http://www.w3.org/1999/xlink"><linearGradient id="a" gradientUnits="userSpaceOnUse" x1="0" x2="512" y1="256" y2="256"><stop offset="0" stop-color="#00f1ff"/><stop offset=".231" stop-color="#00d8ff"/><stop offset=".5138" stop-color="#00c0ff"/><stop offset=".7773" stop-color="#00b2ff"/><stop offset="1" stop-color="#00adff"/></linearGradient><path d="m512 256c0 141.386719-114.613281 256-256 256s-256-114.613281-256-256 114.613281-256 256-256 256 114.613281 256 256zm0 0" fill="url(#a)"/><g fill="#fff"><path d="m316.789062 161.578125c-3.859374 0-7.71875-1.480469-10.648437-4.4375l-41.644531-41.984375c-2.273438-2.296875-5.292969-3.558594-8.496094-3.558594s-6.222656 1.261719-8.496094 3.558594l-41.644531 41.984375c-5.832031 5.882813-15.328125 5.921875-21.210937.089844-5.882813-5.835938-5.921876-15.332031-.089844-21.214844l41.644531-41.984375c7.953125-8.019531 18.535156-12.433594 29.796875-12.433594s21.84375 4.414063 29.796875 12.433594l41.644531 41.984375c5.832032 5.882813 5.792969 15.378906-.089844 21.214844-2.925781 2.898437-6.746093 4.347656-10.5625 4.347656zm0 0"/><path d="m256 430.402344c-11.261719 0-21.84375-4.414063-29.796875-12.433594l-41.644531-41.984375c-5.832032-5.882813-5.792969-15.378906.089844-21.214844 5.882812-5.832031 15.375-5.792969 21.210937.089844l41.644531 41.984375c2.273438 2.296875 5.292969 3.558594 8.496094 3.558594s6.222656-1.261719 8.496094-3.558594l41.644531-41.984375c5.832031-5.882813 15.332031-5.921875 21.210937-.089844 5.882813 5.835938 5.921876 15.332031.089844 21.214844l-41.644531 41.984375c-7.953125 8.019531-18.535156 12.433594-29.796875 12.433594zm0 0"/><path d="m255.324219 304.097656c-26.894531 0-48.769531-21.878906-48.769531-48.773437 0-26.890625 21.878906-48.769531 48.769531-48.769531 26.894531 0 48.773437 21.878906 48.773437 48.769531 0 26.894531-21.878906 48.773437-48.773437 48.773437zm0-67.542968c-10.351563 0-18.769531 8.417968-18.769531 18.769531 0 10.351562 8.417968 18.773437 18.769531 18.773437 10.351562 0 18.773437-8.421875 18.773437-18.773437 0-10.351563-8.421875-18.769531-18.773437-18.769531zm0 0"/></g></svg>